<?xml version="1.0" encoding="UTF-8" standalone="no"?> <!-- Created with Inkscape (http://www.inkscape.org/) --> <svg xmlns:dc="http://purl.org/dc/elements/1.1/" xmlns:cc="http://creativecommons.org/ns#" xmlns:rdf="http://www.w3.org/1999/02/22-rdf-syntax-ns#" xmlns:svg="http://www.w3.org/2000/svg" xmlns="http://www.w3.org/2000/svg" xmlns:sodipodi="http://sodipodi.sourceforge.net/DTD/sodipodi-0.dtd" xmlns:inkscape="http://www.inkscape.org/namespaces/inkscape" width="400mm" height="400mm" viewBox="0 0 400 400" id="svg8" inkscape:version="0.92.3 (2405546, 2018-03-11)" sodipodi:docname="logo_mini.svg"><defs id="defs2"><clipPath id="clipPath4156"><path d="M 0,595.28 H 841.89 V 0 H 0 Z" id="path4154" inkscape:connector-curvature="0"></path></clipPath></defs><metadata id="metadata5"></metadata><g inkscape:label="Calque 1" inkscape:groupmode="layer" id="layer1" transform="translate(0,103)"><path d="m 186.90787,-103 c -7.3381,0.4739 -14.70773,1.36642 -21.96295,2.65387 -16.34498,2.90267 -32.30332,7.839183 -47.44104,14.702914 C 46.123348,-53.23597 0,18.367222 0,96.782801 0,207.19094 89.729645,297 200.0138,297 310.27429,297 400,207.19094 400,96.782801 400,18.359319 353.87665,-53.255714 282.48822,-85.643216 267.30711,-92.522738 251.32904,-97.482956 234.97223,-100.37378 227.74464,-101.65332 220.42627,-102.5261 213.104,-103 v 35.361244 c -0.0189,0.66347 -0.0393,1.204517 -0.0393,1.753456 0,0.560783 0.0189,1.109733 0.0393,1.650769 0.68251,15.670477 11.18464,29.322909 26.14087,33.97903 l 0.47343,0.150085 c 55.74568,17.510809 93.13435,68.447767 93.13435,126.888225 0,36.526261 -15.31525,71.867751 -42.05189,96.953161 -13.53989,12.72438 -29.32074,22.0919 -46.65199,28.46196 -15.12589,5.54472 -31.04477,6.91113 -31.04477,6.91113 0,0 -0.0189,-50.21817 0,-50.97642 0.72983,-13.78276 2.17773,-27.12321 13.8003,-34.6583 0.63122,-0.39096 1.23878,-0.77798 1.88187,-1.14921 15.67426,-9.90859 25.09145,-26.9534 25.09145,-45.542321 0,-29.733631 -24.16041,-53.926512 -53.86382,-53.926512 -29.71918,0 -53.88748,24.192881 -53.88748,53.926512 0,18.825861 9.6026,35.985221 25.68324,45.901681 l 0.58783,0.36321 c 12.77851,7.96162 14.69983,20.0699 14.69983,35.10456 v 50.97645 c 0,0 -15.99779,-1.19663 -31.27362,-6.95062 -17.30362,-6.51224 -33.13572,-15.76528 -46.67962,-28.50543 -26.689283,-25.09723 -42.004532,-60.39923 -42.004532,-96.889965 0,-57.729608 36.879722,-108.544136 91.745642,-126.469608 0.59573,-0.189581 1.21119,-0.379128 1.82661,-0.560791 l 0.8798,-0.244875 c 15.09827,-5.090529 25.31637,-19.291904 25.31637,-35.333606 z" style="fill:#009fe3;fill-opacity:1;fill-rule:nonzero;stroke:none;stroke-width:3.94720674" id="path4226" inkscape:connector-curvature="0"></path></g></svg> 