####
#
# OBJ File Generated by Meshlab
#
####
# Object diaphyseal_neck_axis-right.obj
#
# Vertices: 78
# Faces: 152
#
####
vn 0.494194 -3.640190 2.330452
v 116.112000 -36.780201 -12.688900
vn 0.164793 -3.670530 2.384360
v 115.985001 -36.786900 -12.683200
vn -0.164667 -2.487179 -3.603842
v 113.801201 -28.870001 -52.683201
vn -0.492419 -2.477087 -3.540936
v 113.674202 -28.865999 -52.675499
vn 0.169322 -2.469899 -3.574846
v 113.928200 -28.863400 -52.688900
vn 0.628698 -2.387030 -3.540795
v 114.178596 -28.818600 -52.693699
vn 0.946125 -3.539572 2.281058
v 116.362396 -36.735500 -12.693700
vn 1.128699 -2.208895 -3.532174
v 114.418198 -28.733000 -52.689800
vn 1.446577 -3.360773 2.289936
v 116.601997 -36.649799 -12.689800
vn 1.591516 -1.949060 -3.506570
v 114.639999 -28.608900 -52.677399
vn 1.909310 -3.102505 2.315293
v 116.823799 -36.525799 -12.677400
vn 2.004288 -1.617991 -3.463608
v 114.837601 -28.450100 -52.656700
vn 2.321285 -2.770986 2.358766
v 117.021400 -36.367001 -12.656700
vn 2.354341 -1.224231 -3.404533
v 115.005501 -28.261000 -52.628399
vn 2.671570 -2.375777 2.417629
v 117.189301 -36.177898 -12.628400
vn 2.631803 -0.777097 -3.331025
v 115.138702 -28.047100 -52.593399
vn 2.950497 -1.929375 2.490580
v 117.322502 -35.964001 -12.593400
vn 2.830075 -0.291261 -3.246040
v 115.233398 -27.814501 -52.552502
vn 3.147691 -1.444240 2.576196
v 117.417198 -35.731400 -12.552500
vn 2.942056 0.217978 -3.151374
v 115.286903 -27.570000 -52.507000
vn 3.258907 -0.933604 2.671192
v 117.470703 -35.486900 -12.507000
vn 2.963536 0.738527 -3.049205
v 115.297699 -27.320499 -52.458302
vn 3.282296 -0.412805 2.772683
v 117.481499 -35.237400 -12.458300
vn 2.896204 1.255564 -2.943384
v 115.265404 -27.073299 -52.407600
vn 3.214844 0.102401 2.878643
v 117.449203 -34.990200 -12.407600
vn 2.741912 1.751476 -2.837238
v 115.191002 -26.835501 -52.356400
vn 3.059307 0.598353 2.985299
v 117.374802 -34.752300 -12.356400
vn 2.503284 2.213158 -2.731992
v 115.076698 -26.613800 -52.306301
vn 2.820259 1.061586 3.089680
v 117.260498 -34.530701 -12.306300
vn 2.187011 2.629002 -2.633048
v 114.925598 -26.414700 -52.258701
vn 2.506007 1.477188 3.189540
v 117.109398 -34.331600 -12.258700
vn 1.804526 2.986276 -2.540832
v 114.742203 -26.243900 -52.214802
vn 2.122740 1.832612 3.280511
v 116.926003 -34.160801 -12.214800
vn 1.365274 3.273060 -2.460781
v 114.531700 -26.106400 -52.176102
vn 1.683308 2.120512 3.361529
v 116.715500 -34.023201 -12.176100
vn 0.883226 3.482391 -2.392901
v 114.300201 -26.006001 -52.143600
vn 1.199538 2.330006 3.429188
v 116.484001 -33.922798 -12.143600
vn 0.369666 3.607541 -2.339667
v 114.054298 -25.945601 -52.118301
vn 0.686563 2.456363 3.482551
v 116.238098 -33.862499 -12.118300
vn -0.159200 3.646929 -2.303335
v 113.801201 -25.927099 -52.100800
vn 0.158786 2.494474 3.518897
v 115.985001 -33.844002 -12.100800
vn -0.686921 3.597137 -2.284576
v 113.548103 -25.950899 -52.091702
vn -0.368971 2.445087 3.538121
v 115.731903 -33.867802 -12.091700
vn -1.199928 3.460746 -2.283076
v 113.302200 -26.016300 -52.091202
vn -0.881976 2.308359 3.538571
v 115.486000 -33.933201 -12.091200
vn -1.683411 3.240795 -2.300280
v 113.070702 -26.121500 -52.099400
vn -1.365778 2.088809 3.521588
v 115.254501 -34.038399 -12.099400
vn -2.122941 2.944383 -2.335215
v 112.860199 -26.263500 -52.116001
vn -1.804536 1.792795 3.487516
v 115.043999 -34.180401 -12.116000
vn -2.505579 2.580835 -2.386356
v 112.676804 -26.438101 -52.140499
vn -2.187167 1.428388 3.435550
v 114.860603 -34.354900 -12.140500
vn -2.820502 2.158058 -2.452139
v 112.525703 -26.640301 -52.172298
vn -2.503041 1.005772 3.369377
v 114.709503 -34.557201 -12.172300
vn -3.059597 1.690439 -2.532570
v 112.411400 -26.864401 -52.210400
vn -2.741642 0.538517 3.290269
v 114.595200 -34.781200 -12.210400
vn -3.214658 1.191467 -2.622488
v 112.336998 -27.103800 -52.253700
vn -2.896558 0.039322 3.199726
v 114.520798 -35.020599 -12.253700
vn -3.281891 0.673967 -2.721041
v 112.304703 -27.351700 -52.300999
vn -2.964116 -0.478014 3.100847
v 114.488503 -35.268501 -12.301000
vn -3.259558 0.153862 -2.825472
v 112.315498 -27.600901 -52.350899
vn -2.941352 -0.998259 2.996868
v 114.499298 -35.517799 -12.350900
vn -3.147774 -0.353843 -2.932008
v 112.369003 -27.844299 -52.402000
vn -2.829928 -1.506143 2.890223
v 114.552803 -35.761200 -12.402000
vn -2.950372 -0.835221 -3.037815
v 112.463699 -28.074900 -52.452801
vn -2.631829 -1.987536 2.783895
v 114.647499 -35.991798 -12.452800
vn -2.671955 -1.275599 -3.140521
v 112.596901 -28.285999 -52.501900
vn -2.353970 -2.428781 2.681465
v 114.780701 -36.202900 -12.501900
vn -2.321876 -1.663275 -3.236148
v 112.764801 -28.471701 -52.547798
vn -2.003845 -2.815749 2.586090
v 114.948601 -36.388500 -12.547800
vn -1.909735 -1.986200 -3.322563
v 112.962402 -28.626400 -52.589199
vn -1.591666 -3.138173 2.499839
v 115.146202 -36.543201 -12.589200
vn -1.446355 -2.234816 -3.397194
v 113.184196 -28.745800 -52.625000
vn -1.128746 -3.387769 2.424242
v 115.367996 -36.662701 -12.625000
vn -0.946024 -2.404082 -3.457569
v 113.423798 -28.826500 -52.653999
vn -0.628579 -3.556021 2.364665
v 115.607597 -36.743301 -12.654000
vn -0.171112 -3.646169 2.364810
v 115.858002 -36.782902 -12.675500
vn -0.336046 1.218144 -6.154800
v 113.801201 -27.398600 -52.391998
vn 0.336031 -1.218149 6.154798
v 115.985001 -35.315399 -12.392000
# 78 vertices, 0 vertices normals

f 1//1 2//2 3//3
f 3//3 2//2 4//4
f 3//3 5//5 1//1
f 1//1 5//5 6//6
f 1//1 6//6 7//7
f 7//7 6//6 8//8
f 7//7 8//8 9//9
f 9//9 8//8 10//10
f 9//9 10//10 11//11
f 11//11 10//10 12//12
f 11//11 12//12 13//13
f 13//13 12//12 14//14
f 13//13 14//14 15//15
f 15//15 14//14 16//16
f 15//15 16//16 17//17
f 17//17 16//16 18//18
f 17//17 18//18 19//19
f 19//19 18//18 20//20
f 19//19 20//20 21//21
f 21//21 20//20 22//22
f 21//21 22//22 23//23
f 23//23 22//22 24//24
f 23//23 24//24 25//25
f 25//25 24//24 26//26
f 25//25 26//26 27//27
f 27//27 26//26 28//28
f 27//27 28//28 29//29
f 29//29 28//28 30//30
f 29//29 30//30 31//31
f 31//31 30//30 32//32
f 31//31 32//32 33//33
f 33//33 32//32 34//34
f 33//33 34//34 35//35
f 35//35 34//34 36//36
f 35//35 36//36 37//37
f 37//37 36//36 38//38
f 37//37 38//38 39//39
f 39//39 38//38 40//40
f 39//39 40//40 41//41
f 41//41 40//40 42//42
f 41//41 42//42 43//43
f 43//43 42//42 44//44
f 43//43 44//44 45//45
f 45//45 44//44 46//46
f 45//45 46//46 47//47
f 47//47 46//46 48//48
f 47//47 48//48 49//49
f 49//49 48//48 50//50
f 49//49 50//50 51//51
f 51//51 50//50 52//52
f 51//51 52//52 53//53
f 53//53 52//52 54//54
f 53//53 54//54 55//55
f 55//55 54//54 56//56
f 55//55 56//56 57//57
f 57//57 56//56 58//58
f 57//57 58//58 59//59
f 59//59 58//58 60//60
f 59//59 60//60 61//61
f 61//61 60//60 62//62
f 61//61 62//62 63//63
f 63//63 62//62 64//64
f 63//63 64//64 65//65
f 65//65 64//64 66//66
f 65//65 66//66 67//67
f 67//67 66//66 68//68
f 67//67 68//68 69//69
f 69//69 68//68 70//70
f 69//69 70//70 71//71
f 71//71 70//70 72//72
f 71//71 72//72 73//73
f 73//73 72//72 74//74
f 73//73 74//74 75//75
f 75//75 74//74 4//4
f 75//75 4//4 76//76
f 76//76 4//4 2//2
f 3//3 4//4 77//77
f 3//3 77//77 5//5
f 10//10 8//8 77//77
f 77//77 8//8 6//6
f 77//77 6//6 5//5
f 16//16 14//14 77//77
f 77//77 14//14 12//12
f 77//77 12//12 10//10
f 22//22 20//20 77//77
f 77//77 20//20 18//18
f 77//77 18//18 16//16
f 28//28 26//26 77//77
f 77//77 26//26 24//24
f 77//77 24//24 22//22
f 34//34 32//32 77//77
f 77//77 32//32 30//30
f 77//77 30//30 28//28
f 40//40 38//38 77//77
f 77//77 38//38 36//36
f 77//77 36//36 34//34
f 46//46 44//44 77//77
f 77//77 44//44 42//42
f 77//77 42//42 40//40
f 52//52 50//50 77//77
f 77//77 50//50 48//48
f 77//77 48//48 46//46
f 58//58 56//56 77//77
f 77//77 56//56 54//54
f 77//77 54//54 52//52
f 64//64 62//62 77//77
f 77//77 62//62 60//60
f 77//77 60//60 58//58
f 70//70 68//68 77//77
f 77//77 68//68 66//66
f 77//77 66//66 64//64
f 4//4 74//74 77//77
f 77//77 74//74 72//72
f 77//77 72//72 70//70
f 2//2 1//1 78//78
f 2//2 78//78 76//76
f 71//71 73//73 78//78
f 78//78 73//73 75//75
f 78//78 75//75 76//76
f 65//65 67//67 78//78
f 78//78 67//67 69//69
f 78//78 69//69 71//71
f 59//59 61//61 78//78
f 78//78 61//61 63//63
f 78//78 63//63 65//65
f 53//53 55//55 78//78
f 78//78 55//55 57//57
f 78//78 57//57 59//59
f 47//47 49//49 78//78
f 78//78 49//49 51//51
f 78//78 51//51 53//53
f 41//41 43//43 78//78
f 78//78 43//43 45//45
f 78//78 45//45 47//47
f 35//35 37//37 78//78
f 78//78 37//37 39//39
f 78//78 39//39 41//41
f 29//29 31//31 78//78
f 78//78 31//31 33//33
f 78//78 33//33 35//35
f 23//23 25//25 78//78
f 78//78 25//25 27//27
f 78//78 27//27 29//29
f 17//17 19//19 78//78
f 78//78 19//19 21//21
f 78//78 21//21 23//23
f 11//11 13//13 78//78
f 78//78 13//13 15//15
f 78//78 15//15 17//17
f 1//1 7//7 78//78
f 78//78 7//7 9//9
f 78//78 9//9 11//11
# 152 faces, 0 coords texture

# End of File
