####
#
# OBJ File Generated by Meshlab
#
####
# Object femoral_neck_axis-right.obj
#
# Vertices: 78
# Faces: 152
#
####
vn 0.176007 0.383531 4.328604
v 81.674599 -27.853600 30.993999
vn 0.157687 0.051515 4.377784
v 81.677002 -27.980801 30.999300
vn 4.380792 -0.052266 -0.041719
v 133.145401 -29.244400 -22.862000
vn 4.331846 -0.383957 -0.020238
v 133.139999 -29.371599 -22.864100
vn 4.339542 0.280969 -0.029561
v 133.143005 -29.117201 -22.867300
vn 4.252095 0.739104 -0.064858
v 133.114807 -28.866501 -22.900000
vn 0.146086 0.839107 4.231532
v 81.646400 -27.602900 30.961201
vn 4.130301 1.239268 -0.193373
v 133.056305 -28.626699 -22.961500
vn 0.024986 1.339265 4.103391
v 81.587997 -27.363001 30.899700
vn 3.948648 1.702009 -0.378105
v 132.969193 -28.404600 -23.049999
vn -0.156983 1.802963 3.918078
v 81.500900 -27.140900 30.811300
vn 3.712270 2.115027 -0.613235
v 132.856003 -28.206699 -23.162800
vn -0.393882 2.216303 3.683229
v 81.387604 -26.943001 30.698400
vn 3.428091 2.465922 -0.893024
v 132.719894 -28.038601 -23.296801
vn -0.677574 2.566803 3.402949
v 81.251503 -26.774900 30.564400
vn 3.104510 2.744679 -1.208509
v 132.564804 -27.905199 -23.448099
vn -1.001075 2.845508 3.088154
v 81.096497 -26.641600 30.413099
vn 2.750754 2.941957 -1.551730
v 132.395294 -27.810400 -23.612400
vn -1.354483 3.042570 2.745046
v 80.926903 -26.546700 30.248899
vn 2.376368 3.053806 -1.911875
v 132.216095 -27.756800 -23.784901
vn -1.729268 3.154621 2.384576
v 80.747704 -26.493099 30.076401
vn 1.993450 3.077233 -2.278404
v 132.032394 -27.746000 -23.960600
vn -2.112134 3.178187 2.018193
v 80.564102 -26.482300 29.900600
vn 1.611914 3.008976 -2.641057
v 131.849594 -27.778299 -24.134600
vn -2.493532 3.109400 1.655210
v 80.381203 -26.514601 29.726700
vn 1.243331 2.854002 -2.990310
v 131.672897 -27.852800 -24.301701
vn -2.863012 2.954721 1.305501
v 80.204498 -26.589100 29.559500
vn 0.897284 2.614246 -3.314458
v 131.507294 -27.967300 -24.457300
vn -3.208437 2.715696 0.982298
v 80.038902 -26.703699 29.403999
vn 0.585061 2.299330 -3.606370
v 131.357605 -28.118601 -24.596701
vn -3.519925 2.399992 0.690243
v 79.889198 -26.854900 29.264500
vn 0.315017 1.915599 -3.854532
v 131.228195 -28.302200 -24.716101
vn -3.790963 2.015784 0.441791
v 79.759804 -27.038601 29.145201
vn 0.094799 1.476130 -4.055428
v 131.122696 -28.513000 -24.811899
vn -4.011062 1.577023 0.240916
v 79.654404 -27.249300 29.049299
vn -0.068895 0.992858 -4.199941
v 131.044205 -28.744801 -24.881500
vn -4.174462 1.093668 0.096763
v 79.575897 -27.481100 28.979799
vn -0.171294 0.478766 -4.286118
v 130.994995 -28.990999 -24.922800
vn -4.276707 0.579149 0.010157
v 79.526604 -27.727301 28.938499
vn -0.210399 -0.050202 -4.310895
v 130.976395 -29.244400 -24.934601
vn -4.316424 0.050071 -0.014374
v 79.508102 -27.980801 28.926701
vn -0.184111 -0.579860 -4.272741
v 130.988998 -29.497900 -24.916599
vn -4.289385 -0.478554 0.023198
v 79.520699 -28.234200 28.944700
vn -0.093402 -1.093594 -4.174995
v 131.032501 -29.744101 -24.869200
vn -4.199355 -0.992337 0.121580
v 79.564201 -28.480400 28.992001
vn 0.059345 -1.576436 -4.017361
v 131.105606 -29.975901 -24.794001
vn -4.046679 -1.475190 0.279009
v 79.637199 -28.712200 29.067301
vn 0.269103 -2.016722 -3.806735
v 131.206100 -30.186600 -24.693001
vn -3.835960 -1.915938 0.489687
v 79.737701 -28.923000 29.168301
vn 0.530118 -2.400235 -3.547711
v 131.331207 -30.370300 -24.569099
vn -3.575673 -2.299502 0.748986
v 79.862900 -29.106600 29.292200
vn 0.835007 -2.715894 -3.250131
v 131.477295 -30.521500 -24.425900
vn -3.270613 -2.615001 1.046543
v 80.009003 -29.257900 29.435301
vn 1.174463 -2.954271 -2.918480
v 131.640198 -30.636101 -24.267599
vn -2.930857 -2.853653 1.377536
v 80.171898 -29.372400 29.593700
vn 1.540423 -3.110422 -2.567024
v 131.815201 -30.710501 -24.098600
vn -2.565236 -3.008985 1.730260
v 80.346901 -29.446899 29.762699
vn 1.919368 -3.177046 -2.201882
v 131.997299 -30.742901 -23.923901
vn -2.185345 -3.076976 2.094987
v 80.528999 -29.479200 29.937401
vn 2.304182 -3.154778 -1.835175
v 132.181198 -30.732100 -23.748400
vn -1.801550 -3.053964 2.461071
v 80.712898 -29.468399 30.112900
vn 2.680727 -3.043310 -1.477733
v 132.361603 -30.678499 -23.577200
vn -1.425583 -2.942702 2.818275
v 80.893303 -29.414801 30.284000
vn 3.039144 -2.845092 -1.140271
v 132.533401 -30.583599 -23.415300
vn -1.066662 -2.744180 3.155585
v 81.065102 -29.320000 30.445999
vn 3.369044 -2.567135 -0.832016
v 132.691605 -30.450199 -23.267300
vn -0.736169 -2.466028 3.465367
v 81.223297 -29.186600 30.594000
vn 3.660729 -2.216632 -0.560679
v 132.831696 -30.282200 -23.137400
vn -0.444630 -2.115187 3.736179
v 81.363297 -29.018499 30.723900
vn 3.907031 -1.803094 -0.335020
v 132.949600 -30.084299 -23.029400
vn -0.198134 -1.702331 3.961374
v 81.481201 -28.820601 30.831900
vn 4.099877 -1.338560 -0.161474
v 133.041901 -29.862200 -22.946400
vn -0.005813 -1.238690 4.134705
v 81.573502 -28.598499 30.914900
vn 4.234524 -0.838959 -0.046020
v 133.105896 -29.622299 -22.890800
vn 0.128334 -0.738041 4.250672
v 81.637604 -28.358700 30.970501
vn 0.167886 -0.281172 4.337199
v 81.671600 -28.108000 30.997101
vn 4.340208 -0.106573 -4.541986
v 132.060898 -29.244400 -23.898300
vn -4.340217 0.106563 4.541978
v 80.592499 -27.980801 29.962999
# 78 vertices, 0 vertices normals

f 1//1 2//2 3//3
f 3//3 2//2 4//4
f 3//3 5//5 1//1
f 1//1 5//5 6//6
f 1//1 6//6 7//7
f 7//7 6//6 8//8
f 7//7 8//8 9//9
f 9//9 8//8 10//10
f 9//9 10//10 11//11
f 11//11 10//10 12//12
f 11//11 12//12 13//13
f 13//13 12//12 14//14
f 13//13 14//14 15//15
f 15//15 14//14 16//16
f 15//15 16//16 17//17
f 17//17 16//16 18//18
f 17//17 18//18 19//19
f 19//19 18//18 20//20
f 19//19 20//20 21//21
f 21//21 20//20 22//22
f 21//21 22//22 23//23
f 23//23 22//22 24//24
f 23//23 24//24 25//25
f 25//25 24//24 26//26
f 25//25 26//26 27//27
f 27//27 26//26 28//28
f 27//27 28//28 29//29
f 29//29 28//28 30//30
f 29//29 30//30 31//31
f 31//31 30//30 32//32
f 31//31 32//32 33//33
f 33//33 32//32 34//34
f 33//33 34//34 35//35
f 35//35 34//34 36//36
f 35//35 36//36 37//37
f 37//37 36//36 38//38
f 37//37 38//38 39//39
f 39//39 38//38 40//40
f 39//39 40//40 41//41
f 41//41 40//40 42//42
f 41//41 42//42 43//43
f 43//43 42//42 44//44
f 43//43 44//44 45//45
f 45//45 44//44 46//46
f 45//45 46//46 47//47
f 47//47 46//46 48//48
f 47//47 48//48 49//49
f 49//49 48//48 50//50
f 49//49 50//50 51//51
f 51//51 50//50 52//52
f 51//51 52//52 53//53
f 53//53 52//52 54//54
f 53//53 54//54 55//55
f 55//55 54//54 56//56
f 55//55 56//56 57//57
f 57//57 56//56 58//58
f 57//57 58//58 59//59
f 59//59 58//58 60//60
f 59//59 60//60 61//61
f 61//61 60//60 62//62
f 61//61 62//62 63//63
f 63//63 62//62 64//64
f 63//63 64//64 65//65
f 65//65 64//64 66//66
f 65//65 66//66 67//67
f 67//67 66//66 68//68
f 67//67 68//68 69//69
f 69//69 68//68 70//70
f 69//69 70//70 71//71
f 71//71 70//70 72//72
f 71//71 72//72 73//73
f 73//73 72//72 74//74
f 73//73 74//74 75//75
f 75//75 74//74 4//4
f 75//75 4//4 76//76
f 76//76 4//4 2//2
f 3//3 4//4 77//77
f 3//3 77//77 5//5
f 10//10 8//8 77//77
f 77//77 8//8 6//6
f 77//77 6//6 5//5
f 16//16 14//14 77//77
f 77//77 14//14 12//12
f 77//77 12//12 10//10
f 22//22 20//20 77//77
f 77//77 20//20 18//18
f 77//77 18//18 16//16
f 28//28 26//26 77//77
f 77//77 26//26 24//24
f 77//77 24//24 22//22
f 34//34 32//32 77//77
f 77//77 32//32 30//30
f 77//77 30//30 28//28
f 40//40 38//38 77//77
f 77//77 38//38 36//36
f 77//77 36//36 34//34
f 46//46 44//44 77//77
f 77//77 44//44 42//42
f 77//77 42//42 40//40
f 52//52 50//50 77//77
f 77//77 50//50 48//48
f 77//77 48//48 46//46
f 58//58 56//56 77//77
f 77//77 56//56 54//54
f 77//77 54//54 52//52
f 64//64 62//62 77//77
f 77//77 62//62 60//60
f 77//77 60//60 58//58
f 70//70 68//68 77//77
f 77//77 68//68 66//66
f 77//77 66//66 64//64
f 4//4 74//74 77//77
f 77//77 74//74 72//72
f 77//77 72//72 70//70
f 2//2 1//1 78//78
f 2//2 78//78 76//76
f 71//71 73//73 78//78
f 78//78 73//73 75//75
f 78//78 75//75 76//76
f 65//65 67//67 78//78
f 78//78 67//67 69//69
f 78//78 69//69 71//71
f 59//59 61//61 78//78
f 78//78 61//61 63//63
f 78//78 63//63 65//65
f 53//53 55//55 78//78
f 78//78 55//55 57//57
f 78//78 57//57 59//59
f 47//47 49//49 78//78
f 78//78 49//49 51//51
f 78//78 51//51 53//53
f 41//41 43//43 78//78
f 78//78 43//43 45//45
f 78//78 45//45 47//47
f 35//35 37//37 78//78
f 78//78 37//37 39//39
f 78//78 39//39 41//41
f 29//29 31//31 78//78
f 78//78 31//31 33//33
f 78//78 33//33 35//35
f 23//23 25//25 78//78
f 78//78 25//25 27//27
f 78//78 27//27 29//29
f 17//17 19//19 78//78
f 78//78 19//19 21//21
f 78//78 21//21 23//23
f 11//11 13//13 78//78
f 78//78 13//13 15//15
f 78//78 15//15 17//17
f 1//1 7//7 78//78
f 78//78 7//7 9//9
f 78//78 9//9 11//11
# 152 faces, 0 coords texture

# End of File
